<?xml version="1.0"?>
<svg xmlns="http://www.w3.org/2000/svg" width="512" height="512" viewBox="0 0 512 512"><g><path d="M144,248H32A24.032,24.032,0,0,0,8,272V480a24.032,24.032,0,0,0,24,24H144a24.032,24.032,0,0,0,24-24V272A24.032,24.032,0,0,0,144,248Zm-35.1,16-2.67,8H69.77l-2.67-8ZM152,480a8.011,8.011,0,0,1-8,8H32a8.011,8.011,0,0,1-8-8V272a8.011,8.011,0,0,1,8-8H50.23l6.18,18.53A8,8,0,0,0,64,288h48a8,8,0,0,0,7.59-5.47L125.77,264H144a8.011,8.011,0,0,1,8,8Z"/><path d="M72,464H40a8,8,0,0,0,0,16H72a8,8,0,0,0,0-16Z"/><path d="M104,464H96a8,8,0,0,0,0,16h8a8,8,0,0,0,0-16Z"/><path d="M484,256H432V240a8,8,0,0,0-8-8H392a8,8,0,0,0-8,8v16H332a20.023,20.023,0,0,0-20,20v24a19.869,19.869,0,0,0,4.038,12A19.869,19.869,0,0,0,312,324v24a19.869,19.869,0,0,0,4.038,12A19.869,19.869,0,0,0,312,372v24a20.023,20.023,0,0,0,20,20h52v16a8,8,0,0,0,8,8h32a8,8,0,0,0,8-8V416h52a20.023,20.023,0,0,0,20-20V372a19.869,19.869,0,0,0-4.038-12A19.869,19.869,0,0,0,504,348V324a19.869,19.869,0,0,0-4.038-12A19.869,19.869,0,0,0,504,300V276A20.023,20.023,0,0,0,484,256Zm-84-8h16v8H400Zm-72,28a4,4,0,0,1,4-4H484a4,4,0,0,1,4,4v24a4,4,0,0,1-4,4H332a4,4,0,0,1-4-4Zm160,48v24a4,4,0,0,1-4,4H332a4,4,0,0,1-4-4V324a4,4,0,0,1,4-4H484A4,4,0,0,1,488,324ZM416,424H400v-8h16Zm72-28a4,4,0,0,1-4,4H332a4,4,0,0,1-4-4V372a4,4,0,0,1,4-4H484a4,4,0,0,1,4,4Z"/><circle cx="344" cy="288" r="8"/><circle cx="368" cy="288" r="8"/><path d="M432,296h40a8,8,0,0,0,0-16H432a8,8,0,0,0,0,16Z"/><circle cx="344" cy="336" r="8"/><circle cx="368" cy="336" r="8"/><path d="M432,344h40a8,8,0,0,0,0-16H432a8,8,0,0,0,0,16Z"/><circle cx="344" cy="384" r="8"/><circle cx="368" cy="384" r="8"/><path d="M472,376H432a8,8,0,0,0,0,16h40a8,8,0,0,0,0-16Z"/><circle cx="384" cy="144" r="8"/><path d="M405.336,120.15a32,32,0,0,0-42.672,0,8,8,0,0,0,10.671,11.922,16,16,0,0,1,21.33,0,8,8,0,0,0,10.671-11.922Z"/><path d="M421.335,102.261a56,56,0,0,0-74.67,0,8,8,0,1,0,10.67,11.922,40,40,0,0,1,53.33,0,8,8,0,1,0,10.67-11.922Z"/><path d="M312,144h12.687a63.975,63.975,0,0,0,118.626,0H464a7.963,7.963,0,0,0,2.893-.548A44,44,0,1,0,452.138,56.7a72.02,72.02,0,0,0-132.917-8.159A48,48,0,1,0,312,144Zm72,24a48,48,0,1,1,48-48A48.055,48.055,0,0,1,384,168ZM312,64a31.958,31.958,0,0,1,9.561,1.455,8,8,0,0,0,9.894-4.865,56.018,56.018,0,0,1,107.311,7.667,8,8,0,0,0,10.817,5.752A27.719,27.719,0,0,1,460,72a28,28,0,0,1,3.029,55.829A25.216,25.216,0,0,1,460,128H447.482a64,64,0,1,0-126.964,0H312a32,32,0,0,1,0-64Z"/><path d="M408,448a8,8,0,0,0-8,8v8H216a8,8,0,0,0,0,16H408a8,8,0,0,0,8-8V456A8,8,0,0,0,408,448Z"/><path d="M192,464h-8a8,8,0,0,0,0,16h8a8,8,0,0,0,0-16Z"/><path d="M400,200v16a8,8,0,0,0,16,0V200a8,8,0,0,0-16,0Z"/><path d="M88,208a8,8,0,0,0,8-8V112H248a8,8,0,0,0,0-16H88a8,8,0,0,0-8,8v96A8,8,0,0,0,88,208Z"/><path d="M88,240a8,8,0,0,0,8-8v-8a8,8,0,0,0-16,0v8A8,8,0,0,0,88,240Z"/></g></svg>
