<?xml version="1.0"?>
<svg xmlns="http://www.w3.org/2000/svg" viewBox="0 0 64 64" width="512" height="512"><g id="Coding-2" data-name="Coding"><path d="M60,45a1,1,0,0,0-1-1H55a.977.977,0,0,0-.5.153A.977.977,0,0,0,54,44H51V43c2.654,0,4-1.01,4-3V36a4,4,0,0,0-4-4V30a1,1,0,0,0-2,0v2a4,4,0,0,0-4,4v4c0,1.99,1.346,3,4,3v1H46a.977.977,0,0,0-.5.153A.977.977,0,0,0,45,44H41a1,1,0,0,0-1,1v3a1,1,0,0,0,1,1h1v5a1,1,0,0,0,2,0V49h1v4a1,1,0,0,0,1,1v3H44a1,1,0,0,0-1,1v2H21V58a1,1,0,0,0-1-1H18V54a1,1,0,0,0,1-1V49h1v5a1,1,0,0,0,2,0V49h1a1,1,0,0,0,1-1V45a1,1,0,0,0-1-1H19a.977.977,0,0,0-.5.153A.977.977,0,0,0,18,44H15V43c2.654,0,4-1.01,4-3V36a4,4,0,0,0-4-4V30a1,1,0,0,0-2,0v2a4,4,0,0,0-4,4v4c0,1.99,1.346,3,4,3v1H10a.977.977,0,0,0-.5.153A.977.977,0,0,0,9,44H5a1,1,0,0,0-1,1v3a1,1,0,0,0,1,1H6v5a1,1,0,0,0,2,0V49H9v4a1,1,0,0,0,1,1v3H8a1,1,0,0,0-1,1v2H2a1,1,0,0,0,0,2H58a1,1,0,0,0,0-2H57V58a1,1,0,0,0-1-1H54V54a1,1,0,0,0,1-1V49h1v5a1,1,0,0,0,2,0V49h1a1,1,0,0,0,1-1ZM47,40V38h1a1,1,0,0,0,0-2H47a2,2,0,0,1,2-2h2a2,2,0,0,1,2,2H52a1,1,0,0,0,0,2h1v2c0,.469,0,1-2,1H49C47,41,47,40.469,47,40Zm-3,7H42V46h2ZM20,46h2v1H20Zm-9-6V38h1a1,1,0,0,0,0-2H11a2,2,0,0,1,2-2h2a2,2,0,0,1,2,2H16a1,1,0,0,0,0,2h1v2c0,.469,0,1-2,1H13C11,41,11,40.469,11,40ZM8,47H6V46H8Zm39-1h6v6H47ZM11,46h6v6H11Zm1,8h4v3a1,1,0,0,0-1,1v2H13V58a1,1,0,0,0-1-1ZM9,60V59h2v1Zm8,0V59h2v1Zm28,0V59h2v1Zm10-1v1H53V59Zm-3-2a1,1,0,0,0-1,1v2H49V58a1,1,0,0,0-1-1V54h4Zm6-10H56V46h2Z"/><path d="M62,60H61a1,1,0,0,0,0,2h1a1,1,0,0,0,0-2Z"/><path d="M14,24a1,1,0,0,0,1-1V21h2v9a3,3,0,0,0,3,3H44a3,3,0,0,0,3-3V21h2v6a1,1,0,0,0,2,0V20a1,1,0,0,0-1-1H47V6a3,3,0,0,0-3-3H20a3,3,0,0,0-3,3V19H14a1,1,0,0,0-1,1v3A1,1,0,0,0,14,24ZM19,6a1,1,0,0,1,1-1H44a1,1,0,0,1,1,1V30a1,1,0,0,1-1,1H20a1,1,0,0,1-1-1Z"/><path d="M14,28a1,1,0,0,0,1-1V26a1,1,0,0,0-2,0v1A1,1,0,0,0,14,28Z"/><path d="M29.648,17.937A1.038,1.038,0,0,0,30,18a1,1,0,0,0,.937-.648l3-8a1,1,0,0,0-1.874-.7l-3,8A1,1,0,0,0,29.648,17.937Z"/><path d="M36.4,17.8a1,1,0,0,0,1.4-.2l3-4a1,1,0,0,0,0-1.2l-3-4a1,1,0,0,0-1.6,1.2L38.75,13,36.2,16.4A1,1,0,0,0,36.4,17.8Z"/><path d="M26.2,17.6a1,1,0,1,0,1.6-1.2L25.25,13,27.8,9.6a1,1,0,1,0-1.6-1.2l-3,4a1,1,0,0,0,0,1.2Z"/><path d="M27,21a1,1,0,0,0,1,1H40a1,1,0,0,0,0-2H28A1,1,0,0,0,27,21Z"/><path d="M24,25H40a1,1,0,0,0,0-2H24a1,1,0,0,0,0,2Z"/><path d="M24,28H34a1,1,0,0,0,0-2H24a1,1,0,0,0,0,2Z"/><path d="M38,26H37a1,1,0,0,0,0,2h1a1,1,0,0,0,0-2Z"/><path d="M24,22h1a1,1,0,0,0,0-2H24a1,1,0,0,0,0,2Z"/></g></svg>
