<?xml version="1.0"?>
<svg xmlns="http://www.w3.org/2000/svg" viewBox="0 0 64 64" width="512" height="512"><g id="Peer_to_peer-2" data-name="Peer to peer"><path d="M22,23H4a3,3,0,0,0-3,3V60a3,3,0,0,0,3,3H22a3,3,0,0,0,3-3V26A3,3,0,0,0,22,23Zm-5.281,2-.5,2H9.781l-.5-2ZM23,60a1,1,0,0,1-1,1H4a1,1,0,0,1-1-1V26a1,1,0,0,1,1-1H7.219l.811,3.243A1,1,0,0,0,9,29h8a1,1,0,0,0,.97-.757L18.781,25H22a1,1,0,0,1,1,1Z"/><path d="M10,58H5a1,1,0,0,0,0,2h5a1,1,0,0,0,0-2Z"/><path d="M14,58H13a1,1,0,0,0,0,2h1a1,1,0,0,0,0-2Z"/><path d="M60,1H42a3,3,0,0,0-3,3V38a3,3,0,0,0,3,3H60a3,3,0,0,0,3-3V4A3,3,0,0,0,60,1ZM54.719,3l-.5,2H47.781l-.5-2ZM61,38a1,1,0,0,1-1,1H42a1,1,0,0,1-1-1V4a1,1,0,0,1,1-1h3.219l.811,3.243A1,1,0,0,0,47,7h8a1,1,0,0,0,.97-.757L56.781,3H60a1,1,0,0,1,1,1Z"/><path d="M48,36H43a1,1,0,0,0,0,2h5a1,1,0,0,0,0-2Z"/><path d="M52,36H51a1,1,0,0,0,0,2h1a1,1,0,0,0,0-2Z"/><path d="M51,42a1,1,0,0,0-1,1v7H30.843a1,1,0,0,0,0,2H51a1,1,0,0,0,1-1V43A1,1,0,0,0,51,42Z"/><path d="M13,22a1,1,0,0,0,1-1V14H37.18a1,1,0,0,0,0-2H13a1,1,0,0,0-1,1v8A1,1,0,0,0,13,22Z"/><path d="M28,50H27a1,1,0,0,0,0,2h1a1,1,0,0,0,0-2Z"/><path d="M13,37a6,6,0,1,0,6,6A6.006,6.006,0,0,0,13,37Zm0,10a4,4,0,1,1,4-4A4,4,0,0,1,13,47Z"/><path d="M51,15a6,6,0,1,0,6,6A6.006,6.006,0,0,0,51,15Zm0,10a4,4,0,1,1,4-4A4,4,0,0,1,51,25Z"/></g></svg>
